<svg width="1920" height="240" viewBox="0 0 1920 240" xmlns="http://www.w3.org/2000/svg"><rect width="1920" height="240" fill="#5f27cd"/><path d="M 0,240 C 0,240 0,60 0,60 C 40.09591242756467,63.24685328158358 80.19182485512934,66.49370656316717 121,59 C 161.80817514487066,51.50629343683284 203.3286130070473,33.272027028914955 238,39 C 272.6713869929527,44.727972971085045 300.4937231166817,74.41818532117301 343,81 C 385.5062768833183,87.58181467882699 442.69649452622616,71.055231686393 488,60 C 533.3035054737738,48.94476831360699 566.7202987784133,43.36088793325498 602,46 C 637.2797012215867,48.63911206674502 674.4223103601207,59.501216580587084 716,63 C 757.5776896398793,66.49878341941292 803.5904597811038,62.63424574439668 848,66 C 892.4095402188962,69.36575425560332 935.2158505154639,79.96180044182621 974,76 C 1012.7841494845361,72.03819955817379 1047.5461381570406,53.51855248829846 1082,50 C 1116.4538618429594,46.48144751170154 1150.5995968563743,57.963989604979915 1195,61 C 1239.4004031436257,64.03601039502009 1294.0554744174628,58.62548909178185 1334,53 C 1373.9445255825372,47.37451090821815 1399.1785054737736,41.53405402789271 1437,45 C 1474.8214945262264,48.46594597210729 1525.230503687442,61.238294796647324 1565,67 C 1604.769496312558,72.76170520335268 1633.8994797764578,71.51276678551802 1667,73 C 1700.1005202235422,74.48723321448198 1737.1715772067264,78.71063806128056 1780,77 C 1822.8284227932736,75.28936193871944 1871.4142113966368,67.64468096935971 1920,60 C 1920,60 1920,240 1920,240 Z" fill="#341f97" opacity="0.15"/><path d="M 0,240 C 0,240 0,120 0,120 C 27.32634077303581,130.19552489824676 54.65268154607162,140.39104979649352 102,139 C 149.34731845392838,137.60895020350648 216.7156145887493,124.63132571227266 260,123 C 303.2843854112507,121.36867428772734 322.48486009893134,131.08364735441577 357,132 C 391.51513990106866,132.91635264558423 441.34494501552535,125.0340848700643 483,117 C 524.6550549844746,108.9659151299357 558.1353598389668,100.78001316532705 601,102 C 643.8646401610332,103.21998683467295 696.1136156286074,113.84586246862756 737,115 C 777.8863843713926,116.15413753137244 807.4101776466035,107.83653696016272 847,111 C 886.5898223533965,114.16346303983728 936.245673784978,128.80798969072163 979,126 C 1021.754326215022,123.19201030927836 1057.6071272134845,102.9315042769507 1088,101 C 1118.3928727865155,99.0684957230493 1143.3258173610834,115.46599320147553 1180,116 C 1216.6741826389166,116.53400679852447 1265.0896033421818,101.20452291714717 1314,105 C 1362.9103966578182,108.79547708285283 1412.3157692701886,131.71591512993572 1453,138 C 1493.6842307298114,144.28408487006428 1525.6473195770627,133.93181656311003 1559,123 C 1592.3526804229373,112.06818343688998 1627.0949524215598,100.55681861762423 1673,101 C 1718.9050475784402,101.44318138237577 1775.9728707366974,113.84090896639307 1819,119 C 1862.0271292633026,124.15909103360693 1891.0135646316512,122.07954551680346 1920,120 C 1920,120 1920,240 1920,240 Z" fill="#341f97" opacity="0.3"/><path d="M 0,240 C 0,240 0,180 0,180 C 33.602539830573406,170.92260965392353 67.20507966114681,161.8452193078471 105,159 C 142.7949203388532,156.1547806921529 184.78222118598615,159.54173242253523 227,167 C 269.21777881401385,174.45826757746477 311.6660355949087,185.987851002012 359,189 C 406.3339644050913,192.012148997988 458.5536364343793,186.5068635694167 501,182 C 543.4463635656207,177.4931364305833 576.1194186675743,173.98469472032116 612,178 C 647.8805813324257,182.01530527967884 686.9686888953232,193.55435754929874 721,194 C 755.0313111046768,194.44564245070126 784.0058257511325,183.79787508248387 821,180 C 857.9941742488675,176.20212491751613 903.0080081001472,179.25414212076583 950,183 C 996.9919918998528,186.74585787923417 1045.9621418482786,191.1855564344528 1085,189 C 1124.0378581517214,186.8144435655472 1153.1434245067383,178.0036321414229 1194,176 C 1234.8565754932617,173.9963678585771 1287.4641601247674,178.7999149998556 1335,180 C 1382.5358398752326,181.2000850001444 1424.999934994192,178.79670785915474 1456,174 C 1487.000065005808,169.20329214084526 1506.536099898464,162.0132535635255 1546,170 C 1585.463900101536,177.9867464364745 1644.8556654119516,201.15027788674314 1684,201 C 1723.1443345880484,200.84972211325686 1742.041238453728,177.38563488950197 1778,170 C 1813.958761546272,162.61436511049803 1866.979380773136,171.30718255524903 1920,180 C 1920,180 1920,240 1920,240 Z" fill="#341f97" opacity="0.44999999999999996"/></svg>